<?xml version="1.0" encoding="UTF-8"?>
<svg id="Layer_1" xmlns="http://www.w3.org/2000/svg" version="1.1" viewBox="0 0 660.7 130.5">
  <!-- Generator: Adobe Illustrator 29.1.0, SVG Export Plug-In . SVG Version: 2.1.0 Build 142)  -->
  <defs>
    <style>
      .st0 {
        fill: currentColor;
      }
    </style>
  </defs>
  <g>
    <g>
      <path class="st0" d="M222.4,50.2v.8c-3.7,0-6.7-.1-8.9-.1s-5.1,0-8.7.1v-.8c1-.1,1.8-.4,2.5-.6.7-.3,1.2-.6,1.6-1,.4-.4.7-.9.9-1.6.2-.7.3-1.4.4-2.1,0-.7.1-1.7.1-2.9v-24.4c0-1.2,0-2.1,0-2.9,0-.7-.2-1.4-.4-2.1s-.5-1.2-.9-1.6c-.4-.4-.9-.7-1.6-1s-1.5-.5-2.5-.6v-.9c1.4,0,3.9,0,7.5,0s6.1,0,7.4,0c4.8,0,8.4,0,10.6,0,2.3,0,4-.2,5.2-.4-.2,1.5-.3,3.2-.3,5.2s0,2.1.2,4.8h-.6c-.3-.6-.5-1.1-.6-1.4-.1-.3-.4-.7-.7-1.3s-.6-.9-.9-1.2c-.3-.3-.7-.6-1.1-.9-.5-.3-1-.6-1.6-.8-.6-.2-1.2-.3-2-.4s-1.7-.2-2.6-.2c-1.4,0-2.5,0-3.3,0-.8,0-1.5.1-2.3.3-.7.2-1.3.3-1.6.6s-.6.6-.9,1.1-.4,1.1-.5,1.7,0,1.5,0,2.5v8.4h5.9c.9,0,1.7,0,2.2,0,.5,0,1.1,0,1.8,0,.7,0,1.2-.1,1.5-.2s.7-.2,1.1-.4c.4-.2.7-.4.9-.6.2-.2.3-.6.5-.9.2-.4.2-.8.3-1.3h.8c0,1.9,0,3.7,0,5.5s0,3.4,0,5.2h-.8c0-.5-.2-1-.4-1.3-.2-.4-.4-.7-.8-.9-.3-.2-.7-.4-1.1-.6-.4-.1-.9-.3-1.6-.3-.7,0-1.3-.1-1.9-.1-.6,0-1.4,0-2.5,0h-5.9v11.5c0,1.5,0,2.7.2,3.5s.4,1.6.8,2.4,1,1.2,1.7,1.6,1.8.6,3,.8Z"/>
      <path class="st0" d="M251.3,50.3v.6c-3,0-5.4,0-7.1,0s-4.1,0-7,0v-.6c.8-.1,1.4-.3,2-.5.5-.2,1-.5,1.3-.8s.6-.7.7-1.3c.2-.5.3-1.1.3-1.7,0-.6,0-1.4,0-2.3v-19.4c0-.9,0-1.7,0-2.3,0-.6-.2-1.1-.3-1.7-.2-.5-.4-1-.7-1.3-.3-.3-.7-.6-1.3-.8-.5-.2-1.2-.4-2-.5v-.7h14.1v.7c-1,.1-1.8.3-2.4.6-.6.3-1,.7-1.4,1.2-.3.6-.5,1.2-.6,1.9s-.1,1.6-.1,2.8v19.4c0,1.2,0,2.1.1,2.8s.3,1.3.6,1.9c.3.6.8,1,1.4,1.3.6.3,1.4.5,2.4.6Z"/>
      <path class="st0" d="M255.6,50.7l.3-6.2h.8c.4,1.8,1,3,1.9,3.6s2.2.9,4.2.9,1.4,0,2.1-.1c.7,0,1.4-.2,2.3-.5.8-.2,1.6-.5,2.2-.9.6-.4,1.1-.9,1.6-1.6.4-.7.6-1.5.6-2.4s-.2-1.9-.5-2.7c-.4-.8-.9-1.5-1.5-2-.6-.6-1.3-1.1-2.1-1.5-.8-.5-1.6-.9-2.5-1.3-.9-.4-1.8-.8-2.7-1.3s-1.7-.9-2.5-1.5-1.5-1.2-2.1-1.8c-.6-.7-1.1-1.5-1.5-2.5s-.5-2.1-.5-3.3c0-2.8,1.2-5.1,3.6-6.8s5.8-2.5,10.3-2.5,3.3.2,4.4.7l-.4,6.3h-.8c-.2-2.8-1.9-4.3-5.1-4.3s-4.2.5-5.5,1.5c-1.3,1-2,2.5-2,4.6s.2,1.7.6,2.4c.4.7.9,1.3,1.5,1.9s1.4,1,2.2,1.5c.8.5,1.7.9,2.6,1.3.9.4,1.8.9,2.7,1.3.9.4,1.8.9,2.6,1.5s1.5,1.2,2.2,1.9c.6.7,1.1,1.5,1.5,2.5.4,1,.6,2,.6,3.2s-.3,2.8-.8,3.9c-.6,1.1-1.3,2.1-2.2,2.7-.9.7-2,1.3-3.2,1.7-1.3.4-2.5.8-3.8.9-1.3.2-2.6.3-4,.3-2.6,0-4.8-.4-6.7-1.3Z"/>
      <path class="st0" d="M316.9,50.4v.6c-3,0-5.4,0-7.1,0s-4.1,0-7,0v-.6c.8-.1,1.4-.3,2-.5.5-.2,1-.5,1.3-.8.3-.3.6-.7.7-1.3.2-.5.3-1.1.3-1.7,0-.6,0-1.4,0-2.3v-9.2h-17.8v9.2c0,1.2,0,2.1.1,2.8s.3,1.3.6,1.9c.3.6.8,1,1.4,1.3.6.3,1.4.5,2.4.6v.6c-3,0-5.4,0-7.1,0s-4.1,0-7,0v-.6c.8-.1,1.4-.3,2-.5.5-.2,1-.5,1.3-.8.3-.3.6-.7.7-1.3.2-.5.3-1.1.3-1.7,0-.6,0-1.4,0-2.3v-19.5c0-.9,0-1.7,0-2.3,0-.6-.2-1.1-.3-1.7-.2-.5-.4-1-.7-1.3-.3-.3-.7-.6-1.3-.8-.5-.2-1.2-.4-2-.5v-.7h14.1v.7c-1,.1-1.8.3-2.4.6-.6.3-1,.7-1.4,1.2-.3.6-.5,1.2-.6,1.9s-.1,1.6-.1,2.8v7.1h17.8v-7.1c0-.9,0-1.7,0-2.3,0-.6-.2-1.1-.3-1.7-.2-.5-.4-1-.7-1.3-.3-.3-.7-.6-1.3-.8-.5-.2-1.2-.4-2-.5v-.7h14.1v.7c-1,.1-1.8.3-2.4.6-.6.3-1,.7-1.4,1.2-.3.6-.5,1.2-.6,1.9,0,.7-.1,1.6-.1,2.8v19.5c0,1.2,0,2.1.1,2.8,0,.7.3,1.3.6,1.9.3.6.8,1,1.4,1.3.6.3,1.4.5,2.4.6Z"/>
      <path class="st0" d="M346.5,43.7l.5.3c-1,2-1.8,4.4-2.4,7.4-.8-.2-1.8-.3-3.1-.3-1.3,0-2.4-.1-3.6-.1-1.1,0-2.9,0-5.3,0-6,0-10.3,0-12.7.1v-.6c.8-.1,1.4-.3,2-.5.5-.2,1-.5,1.3-.8.3-.3.6-.7.7-1.3.2-.5.3-1.1.3-1.7,0-.6,0-1.4,0-2.3v-19.5c0-.9,0-1.7,0-2.3,0-.6-.2-1.1-.3-1.7-.2-.5-.4-1-.7-1.3-.3-.3-.7-.6-1.3-.8-.5-.2-1.2-.4-2-.5v-.7c1.1,0,3.1,0,6,0,2.9,0,4.9,0,6,0,3.9,0,6.7,0,8.5,0,1.8,0,3.2-.2,4.2-.4-.2,1.2-.3,2.5-.3,4.1s0,1.7.1,3.9h-.5c-.2-.5-.4-.9-.5-1.1-.1-.3-.3-.6-.5-1s-.5-.7-.7-1-.5-.5-.9-.7c-.4-.3-.8-.5-1.2-.6-.5-.1-1-.2-1.6-.3-.6,0-1.3-.1-2.1-.1-1.1,0-2,0-2.6,0s-1.2,0-1.8.2c-.6.1-1,.3-1.3.5-.2.2-.5.5-.7.9-.2.4-.3.9-.4,1.4s0,1.2,0,2v6.7h4.6c.8,0,1.3,0,1.7,0,.4,0,.9,0,1.4,0,.5,0,.9,0,1.2-.2.3,0,.6-.2.9-.3s.6-.3.7-.5c.1-.2.3-.4.4-.7.1-.3.2-.6.2-1h.6c0,1.5,0,3,0,4.4s0,2.7,0,4.1h-.6c0-.4-.2-.8-.3-1.1-.1-.3-.4-.5-.6-.7-.3-.2-.6-.4-.9-.5-.3-.1-.7-.2-1.3-.3-.5,0-1.1,0-1.5-.1-.5,0-1.1,0-2,0h-4.6v9.6c0,.3,0,.7,0,1.1s0,.7.1.9c0,.2.1.4.3.6.1.2.3.4.4.5.1,0,.4.2.6.3s.6.2.8.2c.3,0,.7,0,1.2.1.5,0,1,0,1.5,0,.5,0,1.1,0,1.8,0,1.3,0,2.5,0,3.4-.2s1.8-.3,2.4-.5c.6-.2,1.2-.5,1.8-.9.5-.4,1-.8,1.3-1.2s.7-.9,1.2-1.5Z"/>
      <path class="st0" d="M402.2,46.6l.3.7c-4.4,4.6-9.3,7-14.8,7s-4.3-.4-6.4-1.1c-2.2-.7-4.2-1.7-6.1-2.8s-3.7-2.5-5.6-4.1c-1.9-1.6-3.6-3.2-5-4.7-1.4-1.5-2.9-3.2-4.3-4.9h-2v6.6c0,1,0,1.8,0,2.4,0,.6.2,1.2.3,1.8.2.6.4,1.1.8,1.4.3.4.8.6,1.3.9.5.2,1.2.4,2,.5v.6c-3,0-5.4,0-7.1,0s-4.1,0-7,0v-.6c.8-.1,1.4-.3,2-.6.5-.3,1-.6,1.3-.9s.6-.8.7-1.4c.2-.6.3-1.2.3-1.8,0-.6,0-1.4,0-2.4v-19.1c0-.9,0-1.7,0-2.3,0-.6-.2-1.1-.3-1.7-.2-.5-.4-1-.7-1.3-.3-.3-.7-.6-1.3-.8-.5-.2-1.2-.4-2-.5v-.7c.7,0,1.9,0,3.5,0s2.8,0,3.5,0,1.9,0,3.7-.2,3.2-.2,4-.2c4.3,0,7.6.7,9.9,2.2,2.3,1.5,3.4,3.7,3.4,6.5s0,1.7-.3,2.5-.5,1.7-1,2.6c-.5.9-1.1,1.7-1.9,2.4-.8.7-1.7,1.4-2.9,2-1.2.6-2.6,1-4.1,1.3,1.7,1.9,3.4,3.7,5.2,5.4,1.8,1.6,3.7,3.1,5.7,4.6,2,1.4,4.1,2.5,6.3,3.3,2.2.8,4.3,1.2,6.3,1.2,4.7,0,8.8-1.4,12.2-4.2ZM358.3,33.9h4.1c1.3,0,2.5-.2,3.6-.5,1.1-.3,2-.7,2.9-1.3s1.5-1.4,1.9-2.4c.5-1,.7-2.1.7-3.4s0-1.1-.2-1.6c-.1-.6-.4-1.2-.8-1.8-.4-.6-.9-1.2-1.5-1.7-.6-.5-1.4-.9-2.5-1.2s-2.2-.5-3.6-.5-1.8,0-2.4.2c-.6.1-1,.4-1.4.8-.4.4-.6,1-.7,1.6,0,.7-.2,1.6-.2,2.9v8.9Z"/>
    </g>
    <g>
      <path class="st0" d="M199.7,107.3l-4,12c-5.4,1.4-10.6,2.1-15.7,2.1s-8.6-.4-12.4-1.3c-3.8-.9-7.2-2.1-10-3.8-2.9-1.6-5.4-3.5-7.6-5.6-2.2-2.2-4-4.5-5.4-7.1-1.4-2.6-2.4-5.3-3.2-8.1-.7-2.8-1.1-5.7-1.1-8.6s.5-7.1,1.5-10.5c1-3.4,2.6-6.6,4.7-9.6,2.1-3,4.7-5.7,7.8-7.9,3-2.3,6.7-4,11.1-5.4,4.4-1.3,9.1-2,14.3-2s7.9.3,11.5.9c3.5.6,6.3,1.3,8.3,2l-1.8,12.6h-1.6c-.5-2.9-2.1-5.3-4.9-7.2-2.8-1.9-6.5-2.9-11.1-2.9s-7.3.6-10.6,1.8c-3.2,1.2-6,2.8-8.2,4.7-2.2,2-4.1,4.3-5.6,6.9-1.6,2.6-2.7,5.3-3.4,8.1-.7,2.8-1.1,5.6-1.1,8.5s.4,5.7,1.3,8.4,2.1,5.4,3.9,8c1.7,2.5,3.9,4.8,6.3,6.7,2.5,1.9,5.4,3.5,8.9,4.6,3.5,1.1,7.3,1.7,11.3,1.7s1.3,0,1.9,0c.7,0,1.6-.3,2.9-.6,1.3-.3,2.5-.8,3.6-1.4,1.1-.6,2.3-1.5,3.5-2.6,1.2-1.2,2.3-2.6,3.1-4.2h1.6Z"/>
      <path class="st0" d="M263.4,118.6v1c-4.8,0-8.7-.1-11.5-.1s-6.6,0-11.3.1v-1c1.3-.2,2.3-.5,3.2-.8s1.5-.8,2.1-1.3c.5-.5.9-1.2,1.2-2.1.3-.9.4-1.8.5-2.7s.1-2.2.1-3.7v-14.9h-28.9v14.9c0,1.9,0,3.5.2,4.6.2,1.1.5,2.1,1,3.1s1.3,1.6,2.2,2.1c1,.4,2.3.8,3.9,1v1c-4.8,0-8.7-.1-11.5-.1s-6.6,0-11.3.1v-1c1.3-.2,2.3-.5,3.2-.8s1.5-.8,2.1-1.3c.5-.5.9-1.2,1.2-2.1.3-.9.4-1.8.5-2.7s.1-2.2.1-3.7v-31.5c0-1.5,0-2.8-.1-3.7,0-.9-.3-1.8-.5-2.7-.3-.9-.7-1.6-1.2-2.1-.5-.5-1.2-.9-2.1-1.3s-1.9-.6-3.2-.8v-1.1h22.8v1.1c-1.6.2-2.9.5-3.9,1-1,.4-1.7,1.1-2.2,2s-.8,1.9-1,3c-.2,1.1-.2,2.6-.2,4.6v11.5h28.9v-11.5c0-1.5,0-2.8-.1-3.7s-.3-1.8-.5-2.7c-.3-.9-.7-1.6-1.2-2.1-.5-.5-1.2-.9-2.1-1.3s-1.9-.6-3.2-.8v-1.1h22.8v1.1c-1.6.2-2.9.5-3.9,1-1,.4-1.7,1.1-2.2,2s-.8,1.9-1,3c-.2,1.1-.2,2.6-.2,4.6v31.5c0,1.9,0,3.5.2,4.6.2,1.1.5,2.1,1,3.1s1.3,1.6,2.2,2.1c1,.4,2.3.8,3.9,1Z"/>
      <path class="st0" d="M327.5,118.2v1.3c-5.6,0-9.9-.1-12.8-.1s-2.8,0-4.4,0c-1.6,0-3.1,0-4.5,0v-1.3c1.2,0,2.1-.2,2.9-.5.8-.2,1.3-.5,1.7-.9.3-.4.6-.7.7-1.1.1-.4.2-.8.2-1.4s-1.4-4.1-4.1-10.4c-.8-1.8-1.4-3.2-1.8-4.2h-20.3c-2.9,6-4.7,9.7-5.1,11-.5,1.2-.7,2.3-.7,3.1,0,1.3.5,2.3,1.5,3,1,.8,2.8,1.2,5.4,1.3v1.3c-1.5,0-3.1,0-4.9,0-1.8,0-3.3,0-4.6,0-3,0-6.9,0-11.7.1v-1.1c1-.1,1.8-.3,2.5-.5.7-.2,1.3-.6,1.8-.9.5-.4.9-.7,1.1-1,.3-.3.6-.7.9-1.2,1.2-2,4.6-8.6,10.1-19.9,5.6-11.3,10.5-21.8,14.8-31.4h2.4c2.2,5.4,4.6,11.1,7.1,16.8,2.5,5.7,4.3,10,5.6,12.9,1.3,2.8,3.5,7.9,6.8,15.2.4.9.7,1.6.9,2,.2.4.5,1,.8,1.7s.6,1.3.9,1.6c.2.3.5.8.9,1.3.4.5.7.9.9,1.2.3.2.6.5,1,.9.4.3.8.6,1.2.7.4.2.8.3,1.3.4.5.1,1,.2,1.6.3ZM287.2,95h16c-1.3-3.2-3.8-9.4-7.5-18.7-2.5,6-5.4,12.2-8.4,18.7Z"/>
      <path class="st0" d="M370.4,107.8l.7.6c-1.7,3.3-3,7.2-3.9,11.8-1.3-.3-3-.4-5.1-.6-2.1-.1-4-.2-5.6-.2-1.6,0-4.5,0-8.7,0-8.8,0-15.1,0-19.1.2v-1c1.3-.2,2.3-.5,3.2-.8s1.5-.8,2.1-1.3c.5-.5.9-1.2,1.2-2.1.3-.9.4-1.8.5-2.7s.1-2.2.1-3.7v-31.5c0-1.5,0-2.8-.1-3.7,0-.9-.3-1.8-.5-2.7-.3-.9-.7-1.6-1.2-2.1-.5-.5-1.2-.9-2.1-1.3s-1.9-.6-3.2-.8v-1.1h22.8v1.1c-1.6.2-2.9.5-3.9,1-1,.4-1.7,1.1-2.2,2s-.8,1.9-1,3c-.2,1.1-.2,2.6-.2,4.6v30c0,1.2,0,2.1,0,2.6s0,1.2.2,2,.2,1.3.3,1.5c.1.3.4.6.7,1,.4.4.7.6,1.1.7.4,0,1,.2,1.7.3.8.1,1.6.2,2.3.2.8,0,1.8,0,3.1,0,2.6,0,4.9-.1,6.6-.4,1.8-.3,3.3-.8,4.5-1.5,1.2-.7,2.2-1.4,2.8-2.1.7-.7,1.5-1.7,2.5-3.1Z"/>
      <path class="st0" d="M414,107.8l.7.6c-1.7,3.3-3,7.2-3.9,11.8-1.3-.3-3-.4-5.1-.6-2.1-.1-4-.2-5.6-.2-1.6,0-4.5,0-8.7,0-8.8,0-15.1,0-19.1.2v-1c1.3-.2,2.3-.5,3.2-.8s1.5-.8,2.1-1.3c.5-.5.9-1.2,1.2-2.1.3-.9.4-1.8.5-2.7s.1-2.2.1-3.7v-31.5c0-1.5,0-2.8-.1-3.7,0-.9-.3-1.8-.5-2.7-.3-.9-.7-1.6-1.2-2.1-.5-.5-1.2-.9-2.1-1.3s-1.9-.6-3.2-.8v-1.1h22.8v1.1c-1.6.2-2.9.5-3.9,1-1,.4-1.7,1.1-2.2,2s-.8,1.9-1,3c-.2,1.1-.2,2.6-.2,4.6v30c0,1.2,0,2.1,0,2.6s0,1.2.2,2,.2,1.3.3,1.5c.1.3.4.6.7,1,.4.4.7.6,1.1.7.4,0,1,.2,1.7.3.8.1,1.6.2,2.3.2.8,0,1.8,0,3.1,0,2.6,0,4.9-.1,6.6-.4,1.8-.3,3.3-.8,4.5-1.5,1.2-.7,2.2-1.4,2.8-2.1.7-.7,1.5-1.7,2.5-3.1Z"/>
      <path class="st0" d="M457.6,107.8l.7.4c-1.7,3.2-3,7.2-3.9,12-1.3-.3-2.9-.4-5-.6-2-.1-4-.2-5.8-.2-1.8,0-4.7,0-8.6,0-9.8,0-16.6,0-20.5.2v-1c1.3-.2,2.3-.5,3.2-.8s1.5-.8,2.1-1.3c.5-.5.9-1.2,1.2-2.1.3-.9.4-1.8.5-2.7s.1-2.2.1-3.7v-31.6c0-1.5,0-2.8-.1-3.7,0-.9-.3-1.8-.5-2.7-.3-.9-.7-1.6-1.2-2.1-.5-.5-1.2-.9-2.1-1.3s-1.9-.6-3.2-.8v-1.1c1.8,0,5,0,9.7,0,4.7,0,7.9,0,9.6,0,6.3,0,10.8,0,13.8-.1,2.9,0,5.2-.3,6.7-.6-.3,1.9-.4,4.1-.4,6.7s0,2.7.2,6.3h-.8c-.3-.8-.6-1.4-.8-1.8s-.5-1-.9-1.7-.8-1.2-1.1-1.5c-.4-.3-.8-.7-1.5-1.2-.6-.4-1.3-.8-2-1-.7-.2-1.6-.4-2.6-.6-1-.2-2.2-.2-3.4-.2-1.8,0-3.2,0-4.2,0-1,0-2,.2-2.9.3-1,.2-1.6.4-2,.7-.4.3-.8.8-1.1,1.4s-.6,1.4-.6,2.2c0,.8-.1,1.9-.1,3.2v10.8h7.4c1.2,0,2.2,0,2.8,0,.6,0,1.4,0,2.3-.1.9,0,1.5-.1,2-.3.4-.1.9-.3,1.4-.5.5-.2.9-.5,1.1-.8.2-.3.4-.7.6-1.2.2-.5.3-1,.4-1.6h1c0,2.4,0,4.8,0,7.1s0,4.4,0,6.7h-1c0-.7-.3-1.2-.5-1.7-.2-.5-.6-.9-1-1.2-.5-.3-.9-.6-1.4-.8-.5-.2-1.2-.3-2.1-.4s-1.7-.2-2.5-.2c-.8,0-1.9,0-3.2,0h-7.4v15.6c0,.5,0,1.1.1,1.7,0,.7.1,1.2.2,1.4,0,.3.2.6.4,1,.2.4.4.7.7.8s.6.3,1,.6c.5.2.9.4,1.4.4.5,0,1.1.1,1.9.2.8,0,1.6.1,2.4.1.8,0,1.8,0,3,0,2.1,0,4-.1,5.6-.3s2.9-.5,3.9-.8c1-.3,2-.8,2.9-1.5.9-.7,1.6-1.3,2.1-1.9.5-.6,1.2-1.4,1.9-2.5Z"/>
      <path class="st0" d="M514.7,120.5h-2.3c-4.7-5.7-11.5-13.3-20.3-22.7-8.8-9.4-15.2-16.4-19-20.9v32.6c0,1.2,0,2.3.2,3.2.2.9.4,1.7.7,2.2s.7,1.1,1,1.5c.4.4.9.7,1.4.9.6.2,1.1.4,1.7.6.5.1,1.2.3,2,.4.1,0,.2,0,.2,0v1.1h-20.4v-1.1c2.2-.4,3.6-.8,4.3-1.1,1.6-.8,2.5-2.4,2.8-4.9.1-.8.2-1.7.2-2.8v-39.9c-6.9-7.3-12.6-10.9-17.3-10.9s-1.8.1-2.9.4v-1.1c1-1.4,2.4-2.6,4.1-3.5,1.7-1,3.3-1.5,4.7-1.5,3.5,0,7.9,2.9,13.3,8.6,2.5,2.7,15.7,17.1,39.7,43.4v-30.4c0-.8,0-1.6-.1-2.3,0-.7-.2-1.3-.3-1.8s-.3-1-.5-1.4c-.2-.4-.5-.8-.7-1.1-.2-.3-.5-.5-.9-.8s-.7-.4-1-.6c-.3-.1-.7-.3-1.2-.4-.5-.1-.9-.2-1.2-.3-.3,0-.8-.1-1.4-.2v-1.1h20.4v1.1c-2.2.4-3.6.8-4.3,1.1-1.6.8-2.5,2.4-2.8,4.9-.1.8-.2,1.7-.2,2.8v45.8Z"/>
      <path class="st0" d="M570.6,107.6v5.5c0,1.5.3,2.7.9,3.8-2,1.3-4.8,2.3-8.4,3s-7,1.2-10.1,1.2-6.6-.4-9.6-1.1c-3-.7-5.6-1.8-7.9-3.1-2.3-1.3-4.3-2.9-6.1-4.7-1.8-1.8-3.2-3.8-4.4-5.9-1.1-2.1-2-4.4-2.6-6.7-.6-2.4-.9-4.7-.9-7.2s.4-5.8,1.2-8.6,2.1-5.4,3.9-7.9c1.8-2.5,3.9-4.7,6.4-6.5,2.5-1.9,5.6-3.3,9.2-4.4s7.6-1.6,11.9-1.6,10.4.7,16.4,2l-1.5,10.4h-1.3c-.4-2.4-1.8-4.3-4-5.8-2.3-1.5-5.3-2.2-9.2-2.2s-6.1.5-8.8,1.5c-2.7,1-5,2.3-6.8,3.9-1.8,1.6-3.4,3.5-4.7,5.7-1.3,2.2-2.2,4.4-2.8,6.7-.6,2.3-.9,4.7-.9,7.1s.3,4.7,1,7c.7,2.3,1.7,4.5,3.1,6.6,1.4,2.1,3,3.9,4.8,5.5,1.9,1.6,4,2.9,6.6,3.8,2.5.9,5.2,1.4,8,1.4s5.9-.6,8.2-1.9v-7.3c0-1,0-1.7,0-2.3,0-.6-.1-1.1-.3-1.6s-.3-.8-.5-1.1c-.2-.2-.5-.4-.9-.6-.5-.2-.9-.3-1.3-.4-.4,0-1.1-.2-2-.3v-1.4c1.8,0,4.9,0,9.4,0s6.8,0,8.4,0v1.5c-1.4.1-2.4.3-2.9.6-.6.3-.9.8-1.2,1.6-.2.8-.3,2.1-.3,3.9Z"/>
      <path class="st0" d="M621.5,107.8l.7.4c-1.7,3.2-3,7.2-3.9,12-1.3-.3-2.9-.4-5-.6-2-.1-4-.2-5.8-.2-1.8,0-4.7,0-8.6,0-9.8,0-16.6,0-20.5.2v-1c1.3-.2,2.3-.5,3.2-.8s1.5-.8,2.1-1.3c.5-.5.9-1.2,1.2-2.1.3-.9.4-1.8.5-2.7s.1-2.2.1-3.7v-31.6c0-1.5,0-2.8-.1-3.7,0-.9-.3-1.8-.5-2.7-.3-.9-.7-1.6-1.2-2.1-.5-.5-1.2-.9-2.1-1.3s-1.9-.6-3.2-.8v-1.1c1.8,0,5,0,9.7,0,4.7,0,7.9,0,9.6,0,6.3,0,10.8,0,13.8-.1,2.9,0,5.2-.3,6.7-.6-.3,1.9-.4,4.1-.4,6.7s0,2.7.2,6.3h-.8c-.3-.8-.6-1.4-.8-1.8s-.5-1-.9-1.7-.8-1.2-1.1-1.5c-.4-.3-.8-.7-1.5-1.2-.6-.4-1.3-.8-2-1-.7-.2-1.6-.4-2.6-.6-1-.2-2.2-.2-3.4-.2-1.8,0-3.2,0-4.2,0-1,0-2,.2-2.9.3-1,.2-1.6.4-2,.7-.4.3-.8.8-1.1,1.4s-.6,1.4-.6,2.2c0,.8-.1,1.9-.1,3.2v10.8h7.4c1.2,0,2.2,0,2.8,0,.6,0,1.4,0,2.3-.1.9,0,1.5-.1,2-.3.4-.1.9-.3,1.4-.5.5-.2.9-.5,1.1-.8.2-.3.4-.7.6-1.2.2-.5.3-1,.4-1.6h1c0,2.4,0,4.8,0,7.1s0,4.4,0,6.7h-1c0-.7-.3-1.2-.5-1.7-.2-.5-.6-.9-1-1.2-.5-.3-.9-.6-1.4-.8-.5-.2-1.2-.3-2.1-.4s-1.7-.2-2.5-.2c-.8,0-1.9,0-3.2,0h-7.4v15.6c0,.5,0,1.1.1,1.7,0,.7.1,1.2.2,1.4,0,.3.2.6.4,1,.2.4.4.7.7.8s.6.3,1,.6c.5.2.9.4,1.4.4.5,0,1.1.1,1.9.2.8,0,1.6.1,2.4.1.8,0,1.8,0,3,0,2.1,0,4-.1,5.6-.3s2.9-.5,3.9-.8c1-.3,2-.8,2.9-1.5.9-.7,1.6-1.3,2.1-1.9.5-.6,1.2-1.4,1.9-2.5Z"/>
      <path class="st0" d="M627.2,119l.5-10h1.2c.7,3,1.7,4.9,3,5.9,1.3,1,3.6,1.4,6.8,1.4s2.2,0,3.3-.2c1.1-.1,2.3-.4,3.7-.7s2.5-.9,3.5-1.5c1-.6,1.8-1.5,2.5-2.6.7-1.1,1-2.4,1-3.9s-.3-3-.9-4.3-1.4-2.4-2.4-3.3-2.2-1.7-3.5-2.5c-1.3-.8-2.7-1.5-4.1-2.1s-2.9-1.4-4.3-2.1-2.8-1.5-4.1-2.4c-1.3-.9-2.5-1.9-3.5-3s-1.8-2.4-2.4-4-.9-3.4-.9-5.3c0-4.6,2-8.3,5.9-11,3.9-2.7,9.4-4.1,16.6-4.1s5.3.4,7.2,1.1l-.6,10.2h-1.2c-.3-4.6-3.1-6.9-8.3-6.9s-6.8.8-8.9,2.4c-2.1,1.6-3.2,4.1-3.2,7.4s.3,2.7.9,3.9,1.4,2.2,2.5,3c1,.8,2.2,1.6,3.5,2.4s2.7,1.5,4.2,2.1c1.5.7,2.9,1.4,4.4,2.1,1.5.7,2.9,1.5,4.2,2.5,1.3.9,2.5,1.9,3.5,3,1,1.1,1.8,2.4,2.5,4,.6,1.6.9,3.3.9,5.2s-.5,4.5-1.4,6.3c-.9,1.8-2.1,3.3-3.5,4.4-1.5,1.1-3.2,2-5.2,2.8s-4.1,1.2-6.1,1.5c-2,.3-4.2.4-6.4.4-4.2,0-7.8-.7-10.9-2Z"/>
    </g>
  </g>
  <g>
    <path class="st0" d="M76.9,57c0-.5-.5-.8-.9-.8-9.3,0-13.6,4.5-15.9,5.4-1.7.6-4.3.3-5.7.1-.5,0-1,.3-1.1.8-.2,1.3-.7,3.7-2.8,5.5-1,.9-1.8,1.9-2.2,2.7-.4.8.4,1.7,1.3,1.3.5-.3.8-.4.8-.4-.3,3.6-4,5-4,5-3.6,1.4-2.6,4.4-2.6,4.4.8-2.5,2.9-2.8,2.9-2.8-1.6,10.4-8.5,12.6-11.6,13.6-1.6.5-3,1.4-3.9,2-.5.4-.5,1.2.1,1.5.8.4,1.4,1,2.3,1.4.6.3,1.2.2,1.6,0,.6-.2,1.1.2,1.2.8,0,1,.3,2.3.8,2.9.2.2.4.6.5.9.2.8,1.3.9,1.7.2.3-.6.6-1.3.7-2,.3-1.4,1.2-2.9,1.8-3.9.4-.6,0-1.3-.6-1.4l-1.5-.3c-.2,0-.4,0-.6,0l-1.5.7c-.1-1.4,1.3-2.3,2.2-2.8.3-.2.7-.1.9,0,.7.5,2.4,1.1,5.7-2,2.2-2.1,4.8-2.9,6.9-3.2.9-.1,1.5,1.1.7,1.6,0,0,0,0,0,0-.6.4-.4,1.4.3,1.6.5.2,1,.5,1.3.7.4.3.9.2,1.2-.2l3.6-4.2c0-.1.2-.2.2-.4l.4-1.4c0-.2.2-.4.4-.5l3.5-2.5c.3-.2.4-.5.4-.8,0-2,.5-3.5,1.2-4.6.5-.9,1.8-.4,1.7.6l-.4,3.9c-.1.9,1.1,1.4,1.7.6l.5-.7c.1-.2.2-.3.2-.5,0-.5,0-1.4,0-2.7,0-1.8,2.2-3.5,2.2-3.5,0,0,0-.6-1.1-1.2-.8-.5-4.5.2-5.8.5-.3,0-.6,0-.8-.2-1-1.1-1.3-3-1.3-4.5,0-.8,1-1.2,1.6-.7,1.2,1.2,2.8,2,3.3,2.3.1,0,.3,0,.4,0h3.7c.3,0,.7.1.8.4l.5.9s2.3-5.9,2.7-7c1-3.4.8-6.4.6-7.8ZM70.6,63.3c-1.1,0-2-.9-2-2s.9-2,2-2,2,.9,2,2-.9,2-2,2Z"/>
    <path class="st0" d="M119.5,83.2c-.6-1.1-.9-2.5-1-4-.2-1.9-.4-2.9-.5-3.1-.1-.2-.3.4-.6,1.8-.5,2.1-1.2,4-2.2,5.6-1,1.6-2.1,2.6-3.4,3.2-.8.4-1.9.5-3.2.5s-1.6,0-2-.2c-.4-.1-.9-.5-1.5-1-1-.8-1.6-1.2-1.8-1.2s-.5-.5-1-1.5c-.5-1-.7-1.9-.7-2.5,0-.9-.2-1.7-.7-2.4-.5-.6-.7-1.4-.7-2.3s.2-1.6.6-2.1c.4-.5.7-1.2.8-2,0-.6.2-.9.4-1,.1-.1.4-.2.9-.4.5,0,.8-.2.9-.5s.3-1,.5-2.2c.3-1.6.7-2.6,1.4-3.2.3-.4.5-.7.5-1,.1-.3.1-.7,0-1.2,0-.6-.2-.9-.3-1-.1-.1-.5-.2-1.1-.2s-1.1-.3-1.4-.8c-.3-.5-.4-1-.2-1.6.2-.6.6-.9,1.3-1.2.7-.2,1.2-.8,1.5-1.6.3-.6.4-1.1.3-1.2,0-.2-.3-.4-.8-.7-2-1.5-3.1-3.1-3.6-4.9-.5-2.1-.2-4.1.9-5.8,1.1-1.7,2.8-2.8,5.1-3.3,1-.2,1.6-.4,1.8-.5.2-.1.3-.4.3-.9s0-.8-.2-1c-.1-.2-.4-.3-.9-.4-.8-.2-1.3-.7-1.3-1.7,0-.9.3-1.5,1-1.8.5,0,1.2-.5,2.2-1.3,1-.8,1.9-1.3,2.8-1.5.5,0,.8-.2.9-.3.1-.1.2-.4,0-.9-.2-.6,0-1.5.6-2.6.6-1.1.8-1.8.7-2.1-.1-.3-.7-.3-1.5.1-.9.4-1.3.8-1.3,1s-.4.8-1.1,1.5c-.5.5-.8.7-1.1.8-.3,0-.9,0-1.8,0-1.1,0-1.8,0-2.2.2-.3.2-.3.8,0,1.6.2.5.2,1,0,1.7-.1.7-.4,1-.7,1s-.6.3-.8.9c-.2.6-.2,1.1,0,1.6.5.9,0,1.4-1.5,1.4s-1.3.2-1.6.5c-.3.3-.6.5-.8.4-.2,0-.6-.4-1.2-1-.7-.6-1.1-1-1.5-1.1-.3-.1-1.1-.1-2.4-.1-1.8,0-2.8,0-3-.3-.3-.3-.7-.4-1.2-.4s-.6,0-.6.1,0,.3,0,.6c0,.3,0,.9-.6,1.7-.5.8-.9,1.4-1.4,1.6-.5.2-1.1.4-1.9.4s-1.5-.3-2.2-.9c-.7-.6-1-1.2-1-1.9s-.3-1.4-.8-2c-.3-.4-.4-.7-.5-.9,0-.2,0-.5.3-.9.2-.4.3-.8.1-1.2-.1-.5-.5-.8-1-1.1-.5-.3-.9-.3-1.2-.1-.3.2-.3.5-.1.9.2.4.3.7.3,1s-.1.5-.4.9c-.4.6-.7.8-1.1.8s-.9.2-1.7.7c-1.2.9-2.4.9-3.6,0-.7-.5-1.7-.6-3.1-.5-.9,0-1.5,0-1.8-.1-.3,0-.7-.5-1.2-1.1s-.8-1.2-.9-1.6c0-.4-.1-1.3-.1-2.8s0-2.4.1-3c0-.6.3-1.2.7-1.8,1-1.8,2.5-2.9,4.5-3.4,2-.5,4-.3,5.9.8.5.2.8.3,1,.3s.7-.2,1.5-.5c.7-.3,1.6-.5,2.7-.5,1.1,0,1.9,0,2.4.2.6.2,1.1,0,1.7-.4.3-.3.6-.5,1-.6.4,0,1-.1,1.8-.1,1.4,0,2.5-.1,3.2-.6.7-.5,1.4-1.5,1.9-2.9.6-1.4,1.5-2.8,2.8-4.2,1.6-1.6,2.7-3.2,3.3-4.9.6-1.7.8-3.3.4-4.9-.4-1.2-.6-1.9-.7-2,0-.1-.4.2-.8,1-.5.8-1.2,1.8-2.1,2.8-1,1-1.8,1.7-2.6,2.1-1.8.8-3.5,1-4.9.4-.8-.4-1.7-.4-2.5-.1-.8.3-1.8.9-3,2-1.2,1-2.1,1.6-2.9,1.9-.8.2-1.8.3-3.1.1s-2.2-.4-2.8-.9c-.7-.5-1.1-.7-1.4-.7s-.8.4-1.7,1.3c-.8.9-1.4,1.6-1.7,2.3-.8,2-2.1,3.5-3.8,4.5-1.7,1-3.5,1.6-5.6,1.8-2.1.2-3.9,0-5.3-.6-1.1-.5-2-.6-2.6-.5-.7.1-1.3.6-2.1,1.4-.7.8-1.1,1.5-1.1,2s-.3,1.5-.8,2.8c-.6,1.4-1.1,2.4-1.7,3.1-.5.7-1,1.5-1.4,2.3-.4.8-.8,1.4-1.4,1.8-.6.4-1.6.6-2.9.8-3.1.3-5.4-.6-6.8-2.5-.7-1.1-1-1.7-.7-1.8.3,0,.6-.5,1-1.1s.9-1.1,1.7-1.5c.8-.4,1.2-.8,1.2-1.4,0-.8-.1-1.3-.3-1.5-.2-.2-.8-.2-1.6-.1s-1.4,0-1.7,0c-.3,0-.7-.4-1.2-.8-.5-.5-.8-.8-1-1.1-.1-.3-.2-.8-.2-1.5s-.2-1.8-.7-2.2l-.8-.8-.4.7c-.3.5-.7.9-1.4,1.2-.7.4-1.1.9-1.2,1.7-.2.8-.8,1.9-2,3.3-1.1,1.4-1.7,2.4-1.7,2.8s-.4.9-1.1,1.6c-1.1.9-2.5,1-4.2.3-.7-.3-.8.6-.3,2.6.3.9.8,1.5,1.5,1.7.7.2,1.3.9,1.7,1.9.5,1,.7,1.7.8,2.1,0,.4,0,.9-.2,1.5-.2.6-.2,1.1,0,1.5.2.4.6.7,1.2,1,.6.3.9.6.9.9s-.3.7-1,1.4c-.6.6-1.4,1-2.3,1-.9,0-1.6-.2-2.3-.7-.6-.5-1-.8-1.1-.8s-.3.5-.6,1.4c-.3,1-.7,1.7-1.2,2.2-1.8,1.6-3.1,2.5-4,2.9-.6.3-1.6.3-2.8,0-1.2-.2-2.2-.6-3.1-1.2-.8-.6-1.4-.9-1.6-.9s-.7-.3-1.5-.8c-1.5-1.3-1.8-.8-1,1.4.4,1.3.5,2.3.3,3-.2.7-.3,1.4-.3,2.1s0,1,.3,1.1c.2,0,.7,0,1.6-.1.9-.2,1.7-.2,2.5,0,.8.2,1.4.7,1.9,1.5.7,1,.7,2.1.2,3.3s-1.5,2.1-3,2.9c-.8.5-1.4.9-1.6,1.3-.2.4-.3,1,0,1.9,0,.6.2.9.4,1,.2.1.5.3,1,.4,1.1.3,2,1,2.6,2.1.6,1.1.6,2.1,0,2.9-.2.4-.1.8.3,1.4.5.8.8,1.9,1,3.3.2,1.3.2,2.8,0,4.5-.2,1.7-.5,3-1.1,4-.5,1-1.3,1.9-2.3,2.6l-2.8,2.1c-.6.5-1.4.7-2.2.8-.8,0-1.5,0-2-.4-.3-.1-.5-.1-.6-.1s-.1.1-.1.4c0,1,.5,2.3,1.4,3.9.9,1.6,2.1,3.1,3.6,4.6.8.9,1.4,1.5,1.8,1.7.4.2.9.4,1.5.4s1.5.3,2.6.9c1.1.6,1.9,1.3,2.4,2,1,1.5,1.5,3.9,1.5,7.2,0,1.9,0,3.1-.3,3.7-.3.6-1.1,1.2-2.4,1.7-1,.4-1.5.7-1.5,1s1.1.6,3.2,1.1c2.1.5,3.4.6,3.9.5.5-.1,1.6,0,3.5.3,1.9.3,3.7.9,5.5,1.7,1.8.8,3.4,1.9,4.7,3.1,1,.9,1.8,1.8,2.3,2.7.5.9.9,1.9,1,3,0,.7.2,1.2.4,1.5.2.2.7.4,1.5.6.4,0,.7.1,1,0,.3,0,.7-.3,1.2-.6.8-.5,2-1.1,3.6-1.7,1.6-.6,2.8-.8,3.8-.7,1,0,2,.5,3.2,1.2,1.2.7,2.3,1.2,s3.5,1.5,1.2.3,2.2.3,3,0,.5,0,.8-.3,1.1-.6.3-.3.6-.7.8-1.4,1-1.9,2.3-3.2,4-3.9,1.6-.6,3.4-.6,5.4,0,1.2.5,2.3,1,3.2,1.7.9.6,1.6,1.4,2,2.1.4.8,1.2,1.5,2.4,2.1,1.2.6,2.5.9,3.9.9h2c0,.1.1-1.9.1-1.9,0-1.4.3-2.4.8-3.1.4-.6,1.3-1.7,2.6-3.2,1.3-1.5,2.5-2.6,3.5-3.5,1.3-1,2.4-1.7,3.3-2.1.9-.4,1.9-.6,3-.6s1.8,0,2.2-.1c.7-.3.7-1.7-.1-4.3-.5-1.2-.6-2.3-.5-3.3,0-1,.4-2,1-3,.6-1,1.4-1.9,2.6-2.7,1.2-.8,2.3-1.2,3.3-1.3,1.1,0,1.9-.4,2.4-.8.6-.5,1-1.2,1.2-2.2.7-2.1,2-3.8,4.2-4.9,1.2-.5,2.3-1.3,3.3-2.3,1-1,1.9-1.7,2.8-2.1.9-.4,1.8-1,2.6-1.7.8-.7,1.3-1.3,1.3-1.8,0-.5-.2-1.2-.9-2.4ZM56.1,117.5c-21.5,0-38.9-17.4-38.9-38.9s17.4-38.9,38.9-38.9,38.8,17.4,38.8,38.9-17.4,38.9-38.8,38.9Z"/>
  </g>
</svg>